<svg xmlns="http://www.w3.org/2000/svg" width="980" height="352" viewBox="0 0 980 352">
<rect width="100%" height="100%" fill="#f8f8f5" />
<text x="18" y="28" font-size="18" font-family="Arial" font-weight="700">L122 Sparse-Field Guard</text>
<rect x="120" y="38" width="18" height="10" fill="#2f7d62" /><text x="144" y="47" font-size="12" font-family="Arial">source-visible groups</text>
<rect x="300" y="38" width="18" height="10" fill="#bf6b3d" /><text x="324" y="47" font-size="12" font-family="Arial">not-found expected groups</text>
<text x="18" y="74" font-size="13" font-family="Arial">Q046</text>
<rect x="120" y="56" width="252" height="20" fill="#2f7d62" rx="3" />
<rect x="372" y="56" width="0" height="20" fill="#bf6b3d" rx="3" />
<text x="560" y="71" font-size="12" font-family="Arial">present 3 / not-found 0</text>
<text x="18" y="108" font-size="13" font-family="Arial">Q047</text>
<rect x="120" y="90" width="420" height="20" fill="#2f7d62" rx="3" />
<rect x="540" y="90" width="0" height="20" fill="#bf6b3d" rx="3" />
<text x="560" y="105" font-size="12" font-family="Arial">present 5 / not-found 0</text>
<text x="18" y="142" font-size="13" font-family="Arial">Q048</text>
<rect x="120" y="124" width="336" height="20" fill="#2f7d62" rx="3" />
<rect x="456" y="124" width="0" height="20" fill="#bf6b3d" rx="3" />
<text x="560" y="139" font-size="12" font-family="Arial">present 4 / not-found 0</text>
<text x="18" y="176" font-size="13" font-family="Arial">Q049</text>
<rect x="120" y="158" width="420" height="20" fill="#2f7d62" rx="3" />
<rect x="540" y="158" width="0" height="20" fill="#bf6b3d" rx="3" />
<text x="560" y="173" font-size="12" font-family="Arial">present 5 / not-found 0</text>
<text x="18" y="210" font-size="13" font-family="Arial">Q050</text>
<rect x="120" y="192" width="420" height="20" fill="#2f7d62" rx="3" />
<rect x="540" y="192" width="0" height="20" fill="#bf6b3d" rx="3" />
<text x="560" y="207" font-size="12" font-family="Arial">present 5 / not-found 0</text>
<text x="18" y="244" font-size="13" font-family="Arial">Q051</text>
<rect x="120" y="226" width="336" height="20" fill="#2f7d62" rx="3" />
<rect x="456" y="226" width="0" height="20" fill="#bf6b3d" rx="3" />
<text x="560" y="241" font-size="12" font-family="Arial">present 4 / not-found 0</text>
<text x="18" y="278" font-size="13" font-family="Arial">Q052</text>
<rect x="120" y="260" width="336" height="20" fill="#2f7d62" rx="3" />
<rect x="456" y="260" width="0" height="20" fill="#bf6b3d" rx="3" />
<text x="560" y="275" font-size="12" font-family="Arial">present 4 / not-found 0</text>
<text x="18" y="312" font-size="13" font-family="Arial">Q053</text>
<rect x="120" y="294" width="84" height="20" fill="#2f7d62" rx="3" />
<rect x="204" y="294" width="0" height="20" fill="#bf6b3d" rx="3" />
<text x="560" y="309" font-size="12" font-family="Arial">present 1 / not-found 0</text>
</svg>
