<svg xmlns="http://www.w3.org/2000/svg" width="1100" height="478" viewBox="0 0 1100 478">
<rect width="100%" height="100%" fill="#ffffff"/>
<text x="24" y="34" font-size="22" font-family="Segoe UI, Arial" font-weight="700">EDD score by experiment</text>
<text x="24" y="82" font-size="13" font-family="Segoe UI, Arial">baseline_default · baseline_default</text>
<rect x="310" y="66" width="621.1" height="20" rx="3" fill="#2f6fed"/>
<text x="939.1" y="82" font-size="13" font-family="Segoe UI, Arial">95.55</text>
<text x="24" y="116" font-size="13" font-family="Segoe UI, Arial">baseline_default · baseline_default</text>
<rect x="310" y="100" width="595.1" height="20" rx="3" fill="#6b8fd6"/>
<text x="913.1" y="116" font-size="13" font-family="Segoe UI, Arial">91.55</text>
<text x="24" y="150" font-size="13" font-family="Segoe UI, Arial">topk_sweep · topk5_filter_rewrite</text>
<rect x="310" y="134" width="595.1" height="20" rx="3" fill="#6b8fd6"/>
<text x="913.1" y="150" font-size="13" font-family="Segoe UI, Arial">91.55</text>
<text x="24" y="184" font-size="13" font-family="Segoe UI, Arial">topk_sweep · topk5_filter_rewrite</text>
<rect x="310" y="168" width="593.7" height="20" rx="3" fill="#6b8fd6"/>
<text x="911.7" y="184" font-size="13" font-family="Segoe UI, Arial">91.34</text>
<text x="24" y="218" font-size="13" font-family="Segoe UI, Arial">baseline_default · baseline_default</text>
<rect x="310" y="202" width="552.5" height="20" rx="3" fill="#6b8fd6"/>
<text x="870.5" y="218" font-size="13" font-family="Segoe UI, Arial">85.00</text>
<text x="24" y="252" font-size="13" font-family="Segoe UI, Arial">prompt_sweep · prompt_default</text>
<rect x="310" y="236" width="552.5" height="20" rx="3" fill="#6b8fd6"/>
<text x="870.5" y="252" font-size="13" font-family="Segoe UI, Arial">85.00</text>
<text x="24" y="286" font-size="13" font-family="Segoe UI, Arial">prompt_sweep · prompt_strict_evidence</text>
<rect x="310" y="270" width="552.5" height="20" rx="3" fill="#6b8fd6"/>
<text x="870.5" y="286" font-size="13" font-family="Segoe UI, Arial">85.00</text>
<text x="24" y="320" font-size="13" font-family="Segoe UI, Arial">baseline_default · baseline_default</text>
<rect x="310" y="304" width="551.1" height="20" rx="3" fill="#6b8fd6"/>
<text x="869.1" y="320" font-size="13" font-family="Segoe UI, Arial">84.79</text>
<text x="24" y="354" font-size="13" font-family="Segoe UI, Arial">prompt_sweep · prompt_concise_verified</text>
<rect x="310" y="338" width="543.9" height="20" rx="3" fill="#6b8fd6"/>
<text x="861.9" y="354" font-size="13" font-family="Segoe UI, Arial">83.67</text>
<text x="24" y="388" font-size="13" font-family="Segoe UI, Arial">baseline_default · baseline_default</text>
<rect x="310" y="372" width="519.4" height="20" rx="3" fill="#6b8fd6"/>
<text x="837.4" y="388" font-size="13" font-family="Segoe UI, Arial">79.90</text>
<text x="24" y="422" font-size="13" font-family="Segoe UI, Arial">baseline_default · baseline_default</text>
<rect x="310" y="406" width="480.7" height="20" rx="3" fill="#6b8fd6"/>
<text x="798.7" y="422" font-size="13" font-family="Segoe UI, Arial">73.96</text>
<text x="24" y="456" font-size="13" font-family="Segoe UI, Arial">prompt_sweep · prompt_concise_verified</text>
<rect x="310" y="440" width="474.0" height="20" rx="3" fill="#6b8fd6"/>
<text x="792.0" y="456" font-size="13" font-family="Segoe UI, Arial">72.93</text>
</svg>