<svg xmlns="http://www.w3.org/2000/svg" width="920" height="580" viewBox="0 0 920 580">
<rect width="100%" height="100%" fill="#ffffff"/>
<text x="24" y="34" font-size="22" font-family="Segoe UI, Arial" font-weight="700">Latency vs EDD score</text>
<line x1="90" y1="500" x2="880" y2="500" stroke="#334155"/>
<line x1="90" y1="60" x2="90" y2="500" stroke="#334155"/>
<text x="485.0" y="556" font-size="14" text-anchor="middle" font-family="Segoe UI, Arial">latency avg sec</text>
<text x="24" y="280.0" font-size="14" transform="rotate(-90 24 280.0)" text-anchor="middle" font-family="Segoe UI, Arial">EDD score</text>
<circle cx="495.3" cy="95.7" r="8" fill="#64748b" fill-opacity="0.75" stroke="#111827" stroke-width="0.5"/>
<text x="506.3" y="99.7" font-size="10" font-family="Segoe UI, Arial">baseline_default</text>
<circle cx="249.5" cy="127.8" r="8" fill="#64748b" fill-opacity="0.75" stroke="#111827" stroke-width="0.5"/>
<text x="260.5" y="131.8" font-size="10" font-family="Segoe UI, Arial">baseline_default</text>
<circle cx="249.5" cy="127.8" r="8" fill="#2f6fed" fill-opacity="0.75" stroke="#111827" stroke-width="0.5"/>
<text x="260.5" y="131.8" font-size="10" font-family="Segoe UI, Arial">topk5_filter_rewrite</text>
<circle cx="369.0" cy="129.5" r="8" fill="#2f6fed" fill-opacity="0.75" stroke="#111827" stroke-width="0.5"/>
<text x="380.0" y="133.5" font-size="10" font-family="Segoe UI, Arial">topk5_filter_rewrite</text>
<circle cx="644.0" cy="180.4" r="8" fill="#64748b" fill-opacity="0.75" stroke="#111827" stroke-width="0.5"/>
<text x="655.0" y="184.4" font-size="10" font-family="Segoe UI, Arial">baseline_default</text>
<circle cx="568.8" cy="180.4" r="8" fill="#64748b" fill-opacity="0.75" stroke="#111827" stroke-width="0.5"/>
<text x="579.8" y="184.4" font-size="10" font-family="Segoe UI, Arial">prompt_default</text>
<circle cx="829.9" cy="180.4" r="8" fill="#64748b" fill-opacity="0.75" stroke="#111827" stroke-width="0.5"/>
<text x="840.9" y="184.4" font-size="10" font-family="Segoe UI, Arial">prompt_strict_evidence</text>
<circle cx="554.4" cy="182.1" r="8" fill="#64748b" fill-opacity="0.75" stroke="#111827" stroke-width="0.5"/>
<text x="565.4" y="186.1" font-size="10" font-family="Segoe UI, Arial">baseline_default</text>
<circle cx="623.1" cy="191.0" r="8" fill="#64748b" fill-opacity="0.75" stroke="#111827" stroke-width="0.5"/>
<text x="634.1" y="195.0" font-size="10" font-family="Segoe UI, Arial">prompt_concise_verified</text>
<circle cx="375.8" cy="221.3" r="8" fill="#64748b" fill-opacity="0.75" stroke="#111827" stroke-width="0.5"/>
<text x="386.8" y="225.3" font-size="10" font-family="Segoe UI, Arial">baseline_default</text>
<circle cx="500.9" cy="269.0" r="8" fill="#64748b" fill-opacity="0.75" stroke="#111827" stroke-width="0.5"/>
<text x="511.9" y="273.0" font-size="10" font-family="Segoe UI, Arial">baseline_default</text>
<circle cx="480.2" cy="277.2" r="8" fill="#64748b" fill-opacity="0.75" stroke="#111827" stroke-width="0.5"/>
<text x="491.2" y="281.2" font-size="10" font-family="Segoe UI, Arial">prompt_concise_verified</text>
<circle cx="419.0" cy="281.0" r="8" fill="#64748b" fill-opacity="0.75" stroke="#111827" stroke-width="0.5"/>
<text x="430.0" y="285.0" font-size="10" font-family="Segoe UI, Arial">prompt_default</text>
<circle cx="880.0" cy="308.8" r="8" fill="#64748b" fill-opacity="0.75" stroke="#111827" stroke-width="0.5"/>
<text x="891.0" y="312.8" font-size="10" font-family="Segoe UI, Arial">prompt_strict_evidence</text>
<circle cx="487.6" cy="492.1" r="8" fill="#2f6fed" fill-opacity="0.75" stroke="#111827" stroke-width="0.5"/>
<text x="498.6" y="496.1" font-size="10" font-family="Segoe UI, Arial">topk5_filter_rewrite</text>
<circle cx="556.1" cy="500.0" r="8" fill="#64748b" fill-opacity="0.75" stroke="#111827" stroke-width="0.5"/>
<text x="567.1" y="504.0" font-size="10" font-family="Segoe UI, Arial">baseline_default</text>
</svg>