<svg xmlns="http://www.w3.org/2000/svg" width="820" height="380" viewBox="0 0 820 380">
<rect width="100%" height="100%" fill="#fff"/>
<text x="410.0" y="28" text-anchor="middle" font-family="Arial" font-size="18" font-weight="700">qv7_006 latency breakdown</text>
<line x1="58" y1="322" x2="762" y2="322" stroke="#333"/>
<line x1="58" y1="58" x2="58" y2="322" stroke="#333"/>
<line x1="58" y1="322.0" x2="762" y2="322.0" stroke="#e5e7eb"/>
<text x="50" y="326.0" text-anchor="end" font-family="Arial" font-size="11">0</text>
<line x1="58" y1="256.0" x2="762" y2="256.0" stroke="#e5e7eb"/>
<text x="50" y="260.0" text-anchor="end" font-family="Arial" font-size="11">9</text>
<line x1="58" y1="190.0" x2="762" y2="190.0" stroke="#e5e7eb"/>
<text x="50" y="194.0" text-anchor="end" font-family="Arial" font-size="11">17</text>
<line x1="58" y1="124.0" x2="762" y2="124.0" stroke="#e5e7eb"/>
<text x="50" y="128.0" text-anchor="end" font-family="Arial" font-size="11">26</text>
<line x1="58" y1="58.0" x2="762" y2="58.0" stroke="#e5e7eb"/>
<text x="50" y="62.0" text-anchor="end" font-family="Arial" font-size="11">35</text>
<rect x="80.0" y="167.4" width="36.1" height="154.6" fill="#2563eb"/>
<text x="98.0" y="162.4" text-anchor="middle" font-family="Arial" font-size="11">20</text>
<rect x="124.0" y="319.4" width="36.1" height="2.6" fill="#059669"/>
<text x="142.0" y="314.4" text-anchor="middle" font-family="Arial" font-size="11">0</text>
<rect x="168.0" y="170.0" width="36.1" height="152.0" fill="#dc2626"/>
<text x="186.0" y="165.0" text-anchor="middle" font-family="Arial" font-size="11">20</text>
<text x="146.0" y="344" text-anchor="middle" font-family="Arial" font-size="12">L81</text>
<rect x="256.0" y="185.8" width="36.1" height="136.2" fill="#2563eb"/>
<text x="274.0" y="180.8" text-anchor="middle" font-family="Arial" font-size="11">18</text>
<rect x="300.0" y="319.3" width="36.1" height="2.7" fill="#059669"/>
<text x="318.0" y="314.3" text-anchor="middle" font-family="Arial" font-size="11">0</text>
<rect x="344.0" y="188.7" width="36.1" height="133.3" fill="#dc2626"/>
<text x="362.0" y="183.7" text-anchor="middle" font-family="Arial" font-size="11">17</text>
<text x="322.0" y="344" text-anchor="middle" font-family="Arial" font-size="12">L85b</text>
<rect x="432.0" y="102.0" width="36.1" height="220.0" fill="#2563eb"/>
<text x="450.0" y="97.0" text-anchor="middle" font-family="Arial" font-size="11">29</text>
<rect x="476.0" y="319.6" width="36.1" height="2.4" fill="#059669"/>
<text x="494.0" y="314.6" text-anchor="middle" font-family="Arial" font-size="11">0</text>
<rect x="520.0" y="104.4" width="36.1" height="217.6" fill="#dc2626"/>
<text x="538.0" y="99.4" text-anchor="middle" font-family="Arial" font-size="11">28</text>
<text x="498.0" y="344" text-anchor="middle" font-family="Arial" font-size="12">L91</text>
<rect x="608.0" y="319.3" width="36.1" height="2.7" fill="#2563eb"/>
<text x="626.0" y="314.3" text-anchor="middle" font-family="Arial" font-size="11">0</text>
<rect x="652.0" y="319.3" width="36.1" height="2.7" fill="#059669"/>
<text x="670.0" y="314.3" text-anchor="middle" font-family="Arial" font-size="11">0</text>
<rect x="696.0" y="322.0" width="36.1" height="0.0" fill="#dc2626"/>
<text x="714.0" y="317.0" text-anchor="middle" font-family="Arial" font-size="11">0</text>
<text x="674.0" y="344" text-anchor="middle" font-family="Arial" font-size="12">L95</text>
<rect x="590" y="55" width="12" height="12" fill="#2563eb"/>
<text x="608" y="65" font-family="Arial" font-size="12">latency</text>
<rect x="590" y="75" width="12" height="12" fill="#059669"/>
<text x="608" y="85" font-family="Arial" font-size="12">retrieval</text>
<rect x="590" y="95" width="12" height="12" fill="#dc2626"/>
<text x="608" y="105" font-family="Arial" font-size="12">generation</text>
</svg>