<svg xmlns="http://www.w3.org/2000/svg" width="940" height="360" viewBox="0 0 940 360">
<rect width="100%" height="100%" fill="#f7f7f4" />
<text x="16" y="25" font-size="18" font-family="Arial" font-weight="700">L121 Selected-Project Batch Modes</text>
<text x="16" y="59" font-size="13" font-family="Arial">selected_project_seeded_contract_rag</text>
<rect x="300" y="42" width="520" height="22" fill="#3f6c9b" rx="3" />
<text x="828" y="58" font-size="13" font-family="Arial">8</text>
<text x="16" y="89" font-size="13" font-family="Arial">selected_project_seeded_technical_rag</text>
<rect x="300" y="72" width="520" height="22" fill="#3f6c9b" rx="3" />
<text x="828" y="88" font-size="13" font-family="Arial">8</text>
<text x="16" y="119" font-size="13" font-family="Arial">conversation_seeded_followup_rag</text>
<rect x="300" y="102" width="260" height="22" fill="#3f6c9b" rx="3" />
<text x="568" y="118" font-size="13" font-family="Arial">4</text>
<text x="16" y="149" font-size="13" font-family="Arial">conversation_seeded_numeric_comparison</text>
<rect x="300" y="132" width="65" height="22" fill="#3f6c9b" rx="3" />
<text x="373" y="148" font-size="13" font-family="Arial">1</text>
<text x="16" y="179" font-size="13" font-family="Arial">conversation_seeded_domain_expansion</text>
<rect x="300" y="162" width="65" height="22" fill="#3f6c9b" rx="3" />
<text x="373" y="178" font-size="13" font-family="Arial">1</text>
<text x="16" y="209" font-size="13" font-family="Arial">unsupported_claim_boundary</text>
<rect x="300" y="192" width="325" height="22" fill="#3f6c9b" rx="3" />
<text x="633" y="208" font-size="13" font-family="Arial">5</text>
<text x="16" y="239" font-size="13" font-family="Arial">persona_or_business_usefulness_seeded_rag</text>
<rect x="300" y="222" width="520" height="22" fill="#3f6c9b" rx="3" />
<text x="828" y="238" font-size="13" font-family="Arial">8</text>
</svg>
