<svg xmlns="http://www.w3.org/2000/svg" width="1100" height="478" viewBox="0 0 1100 478">
<rect width="100%" height="100%" fill="#ffffff"/>
<text x="24" y="34" font-size="22" font-family="Segoe UI, Arial" font-weight="700">EDD score by experiment</text>
<text x="24" y="82" font-size="13" font-family="Segoe UI, Arial">mmr_lambda_sweep · lambda05_top8_filter_rewrite_control</text>
<rect x="310" y="66" width="627.7" height="20" rx="3" fill="#2f6fed"/>
<text x="945.7" y="82" font-size="13" font-family="Segoe UI, Arial">96.57</text>
<text x="24" y="116" font-size="13" font-family="Segoe UI, Arial">topk_sweep · topk5_filter_rewrite</text>
<rect x="310" y="100" width="627.4" height="20" rx="3" fill="#6b8fd6"/>
<text x="945.4" y="116" font-size="13" font-family="Segoe UI, Arial">96.53</text>
<text x="24" y="150" font-size="13" font-family="Segoe UI, Arial">fetchk_sweep · fetch20_top8_filter_rewrite_control</text>
<rect x="310" y="134" width="621.5" height="20" rx="3" fill="#6b8fd6"/>
<text x="939.5" y="150" font-size="13" font-family="Segoe UI, Arial">95.62</text>
<text x="24" y="184" font-size="13" font-family="Segoe UI, Arial">topk_sweep · topk12_filter_rewrite</text>
<rect x="310" y="168" width="607.9" height="20" rx="3" fill="#6b8fd6"/>
<text x="925.9" y="184" font-size="13" font-family="Segoe UI, Arial">93.52</text>
<text x="24" y="218" font-size="13" font-family="Segoe UI, Arial">fetchk_sweep · fetch40_top8_filter_rewrite</text>
<rect x="310" y="202" width="605.3" height="20" rx="3" fill="#6b8fd6"/>
<text x="923.3" y="218" font-size="13" font-family="Segoe UI, Arial">93.13</text>
<text x="24" y="252" font-size="13" font-family="Segoe UI, Arial">mmr_lambda_sweep · lambda03_top8_filter_rewrite</text>
<rect x="310" y="236" width="605.0" height="20" rx="3" fill="#6b8fd6"/>
<text x="923.0" y="252" font-size="13" font-family="Segoe UI, Arial">93.08</text>
<text x="24" y="286" font-size="13" font-family="Segoe UI, Arial">filter_rewrite_ablation · filter_on_rewrite_on_control</text>
<rect x="310" y="270" width="592.9" height="20" rx="3" fill="#6b8fd6"/>
<text x="910.9" y="286" font-size="13" font-family="Segoe UI, Arial">91.21</text>
<text x="24" y="320" font-size="13" font-family="Segoe UI, Arial">topk_sweep · topk8_filter_rewrite_control</text>
<rect x="310" y="304" width="591.7" height="20" rx="3" fill="#6b8fd6"/>
<text x="909.7" y="320" font-size="13" font-family="Segoe UI, Arial">91.03</text>
<text x="24" y="354" font-size="13" font-family="Segoe UI, Arial">filter_rewrite_ablation · filter_on_rewrite_off</text>
<rect x="310" y="338" width="578.0" height="20" rx="3" fill="#6b8fd6"/>
<text x="896.0" y="354" font-size="13" font-family="Segoe UI, Arial">88.93</text>
<text x="24" y="388" font-size="13" font-family="Segoe UI, Arial">filter_rewrite_ablation · filter_off_rewrite_on</text>
<rect x="310" y="372" width="538.5" height="20" rx="3" fill="#6b8fd6"/>
<text x="856.5" y="388" font-size="13" font-family="Segoe UI, Arial">82.85</text>
<text x="24" y="422" font-size="13" font-family="Segoe UI, Arial">mmr_lambda_sweep · lambda07_top8_filter_rewrite</text>
<rect x="310" y="406" width="520.0" height="20" rx="3" fill="#6b8fd6"/>
<text x="838.0" y="422" font-size="13" font-family="Segoe UI, Arial">80.00</text>
<text x="24" y="456" font-size="13" font-family="Segoe UI, Arial">filter_rewrite_ablation · filter_off_rewrite_off</text>
<rect x="310" y="440" width="424.4" height="20" rx="3" fill="#6b8fd6"/>
<text x="742.5" y="456" font-size="13" font-family="Segoe UI, Arial">65.30</text>
</svg>