<svg xmlns="http://www.w3.org/2000/svg" width="920" height="580" viewBox="0 0 920 580">
<rect width="100%" height="100%" fill="#ffffff"/>
<text x="24" y="34" font-size="22" font-family="Segoe UI, Arial" font-weight="700">Latency vs EDD score</text>
<line x1="90" y1="500" x2="880" y2="500" stroke="#334155"/>
<line x1="90" y1="60" x2="90" y2="500" stroke="#334155"/>
<text x="485.0" y="556" font-size="14" text-anchor="middle" font-family="Segoe UI, Arial">latency avg sec</text>
<text x="24" y="280.0" font-size="14" transform="rotate(-90 24 280.0)" text-anchor="middle" font-family="Segoe UI, Arial">EDD score</text>
<circle cx="544.3" cy="97.7" r="8" fill="#24a148" fill-opacity="0.75" stroke="#111827" stroke-width="0.5"/>
<text x="555.3" y="101.7" font-size="10" font-family="Segoe UI, Arial">lambda05_top8_filter_rewrite</text>
<circle cx="702.8" cy="98.2" r="8" fill="#2f6fed" fill-opacity="0.75" stroke="#111827" stroke-width="0.5"/>
<text x="713.8" y="102.2" font-size="10" font-family="Segoe UI, Arial">topk5_filter_rewrite</text>
<circle cx="715.1" cy="108.2" r="8" fill="#f97316" fill-opacity="0.75" stroke="#111827" stroke-width="0.5"/>
<text x="726.1" y="112.2" font-size="10" font-family="Segoe UI, Arial">fetch20_top8_filter_rewrite_</text>
<circle cx="742.8" cy="131.3" r="8" fill="#2f6fed" fill-opacity="0.75" stroke="#111827" stroke-width="0.5"/>
<text x="753.8" y="135.3" font-size="10" font-family="Segoe UI, Arial">topk12_filter_rewrite</text>
<circle cx="632.9" cy="135.6" r="8" fill="#f97316" fill-opacity="0.75" stroke="#111827" stroke-width="0.5"/>
<text x="643.9" y="139.6" font-size="10" font-family="Segoe UI, Arial">fetch40_top8_filter_rewrite</text>
<circle cx="870.2" cy="136.1" r="8" fill="#24a148" fill-opacity="0.75" stroke="#111827" stroke-width="0.5"/>
<text x="881.2" y="140.1" font-size="10" font-family="Segoe UI, Arial">lambda03_top8_filter_rewrite</text>
<circle cx="624.2" cy="156.7" r="8" fill="#8b5cf6" fill-opacity="0.75" stroke="#111827" stroke-width="0.5"/>
<text x="635.2" y="160.7" font-size="10" font-family="Segoe UI, Arial">filter_on_rewrite_on_control</text>
<circle cx="571.8" cy="158.7" r="8" fill="#2f6fed" fill-opacity="0.75" stroke="#111827" stroke-width="0.5"/>
<text x="582.8" y="162.7" font-size="10" font-family="Segoe UI, Arial">topk8_filter_rewrite_control</text>
<circle cx="668.3" cy="181.8" r="8" fill="#8b5cf6" fill-opacity="0.75" stroke="#111827" stroke-width="0.5"/>
<text x="679.3" y="185.8" font-size="10" font-family="Segoe UI, Arial">filter_on_rewrite_off</text>
<circle cx="537.6" cy="248.7" r="8" fill="#8b5cf6" fill-opacity="0.75" stroke="#111827" stroke-width="0.5"/>
<text x="548.6" y="252.7" font-size="10" font-family="Segoe UI, Arial">filter_off_rewrite_on</text>
<circle cx="532.3" cy="280.0" r="8" fill="#24a148" fill-opacity="0.75" stroke="#111827" stroke-width="0.5"/>
<text x="543.3" y="284.0" font-size="10" font-family="Segoe UI, Arial">lambda07_top8_filter_rewrite</text>
<circle cx="498.9" cy="441.7" r="8" fill="#8b5cf6" fill-opacity="0.75" stroke="#111827" stroke-width="0.5"/>
<text x="509.9" y="445.7" font-size="10" font-family="Segoe UI, Arial">filter_off_rewrite_off</text>
</svg>