<svg xmlns="http://www.w3.org/2000/svg" width="1220" height="494" viewBox="0 0 1220 494">
<rect width="100%" height="100%" fill="#ffffff"/>
<text x="24" y="34" font-size="22" font-family="Segoe UI, Arial" font-weight="700">Metric heatmap</text>
<text x="398" y="58" font-size="12" font-family="Segoe UI, Arial" font-weight="700">coverage</text>
<text x="503" y="58" font-size="12" font-family="Segoe UI, Arial" font-weight="700">MRR</text>
<text x="608" y="58" font-size="12" font-family="Segoe UI, Arial" font-weight="700">ground</text>
<text x="713" y="58" font-size="12" font-family="Segoe UI, Arial" font-weight="700">relevance</text>
<text x="818" y="58" font-size="12" font-family="Segoe UI, Arial" font-weight="700">abstain</text>
<text x="923" y="58" font-size="12" font-family="Segoe UI, Arial" font-weight="700">latency</text>
<text x="24" y="90" font-size="12" font-family="Segoe UI, Arial">mmr_lambda_sweep · lambda05_top8_filter_rewrite_control</text>
<text x="315" y="90" font-size="12" font-family="Segoe UI, Arial" font-weight="700">96.57</text>
<rect x="390" y="75" width="86" height="20" rx="3" fill="#1f9d55"/>
<text x="433" y="90" font-size="11" text-anchor="middle" font-family="Segoe UI, Arial" fill="#111827">1.00</text>
<rect x="495" y="75" width="86" height="20" rx="3" fill="#1f9d55"/>
<text x="538" y="90" font-size="11" text-anchor="middle" font-family="Segoe UI, Arial" fill="#111827">1.00</text>
<rect x="600" y="75" width="86" height="20" rx="3" fill="#1f9d55"/>
<text x="643" y="90" font-size="11" text-anchor="middle" font-family="Segoe UI, Arial" fill="#111827">0.93</text>
<rect x="705" y="75" width="86" height="20" rx="3" fill="#1f9d55"/>
<text x="748" y="90" font-size="11" text-anchor="middle" font-family="Segoe UI, Arial" fill="#111827">1.00</text>
<rect x="810" y="75" width="86" height="20" rx="3" fill="#1f9d55"/>
<text x="853" y="90" font-size="11" text-anchor="middle" font-family="Segoe UI, Arial" fill="#111827">1.00</text>
<rect x="915" y="75" width="86" height="20" rx="3" fill="#f2c94c"/>
<text x="958" y="90" font-size="11" text-anchor="middle" font-family="Segoe UI, Arial" fill="#111827">0.58</text>
<text x="24" y="122" font-size="12" font-family="Segoe UI, Arial">topk_sweep · topk5_filter_rewrite</text>
<text x="315" y="122" font-size="12" font-family="Segoe UI, Arial" font-weight="700">96.53</text>
<rect x="390" y="107" width="86" height="20" rx="3" fill="#1f9d55"/>
<text x="433" y="122" font-size="11" text-anchor="middle" font-family="Segoe UI, Arial" fill="#111827">1.00</text>
<rect x="495" y="107" width="86" height="20" rx="3" fill="#1f9d55"/>
<text x="538" y="122" font-size="11" text-anchor="middle" font-family="Segoe UI, Arial" fill="#111827">1.00</text>
<rect x="600" y="107" width="86" height="20" rx="3" fill="#1f9d55"/>
<text x="643" y="122" font-size="11" text-anchor="middle" font-family="Segoe UI, Arial" fill="#111827">1.00</text>
<rect x="705" y="107" width="86" height="20" rx="3" fill="#1f9d55"/>
<text x="748" y="122" font-size="11" text-anchor="middle" font-family="Segoe UI, Arial" fill="#111827">1.00</text>
<rect x="810" y="107" width="86" height="20" rx="3" fill="#1f9d55"/>
<text x="853" y="122" font-size="11" text-anchor="middle" font-family="Segoe UI, Arial" fill="#111827">1.00</text>
<rect x="915" y="107" width="86" height="20" rx="3" fill="#dc2626"/>
<text x="958" y="122" font-size="11" text-anchor="middle" font-family="Segoe UI, Arial" fill="#111827">0.31</text>
<text x="24" y="154" font-size="12" font-family="Segoe UI, Arial">fetchk_sweep · fetch20_top8_filter_rewrite_control</text>
<text x="315" y="154" font-size="12" font-family="Segoe UI, Arial" font-weight="700">95.62</text>
<rect x="390" y="139" width="86" height="20" rx="3" fill="#1f9d55"/>
<text x="433" y="154" font-size="11" text-anchor="middle" font-family="Segoe UI, Arial" fill="#111827">1.00</text>
<rect x="495" y="139" width="86" height="20" rx="3" fill="#1f9d55"/>
<text x="538" y="154" font-size="11" text-anchor="middle" font-family="Segoe UI, Arial" fill="#111827">1.00</text>
<rect x="600" y="139" width="86" height="20" rx="3" fill="#1f9d55"/>
<text x="643" y="154" font-size="11" text-anchor="middle" font-family="Segoe UI, Arial" fill="#111827">0.96</text>
<rect x="705" y="139" width="86" height="20" rx="3" fill="#1f9d55"/>
<text x="748" y="154" font-size="11" text-anchor="middle" font-family="Segoe UI, Arial" fill="#111827">1.00</text>
<rect x="810" y="139" width="86" height="20" rx="3" fill="#1f9d55"/>
<text x="853" y="154" font-size="11" text-anchor="middle" font-family="Segoe UI, Arial" fill="#111827">1.00</text>
<rect x="915" y="139" width="86" height="20" rx="3" fill="#dc2626"/>
<text x="958" y="154" font-size="11" text-anchor="middle" font-family="Segoe UI, Arial" fill="#111827">0.28</text>
<text x="24" y="186" font-size="12" font-family="Segoe UI, Arial">topk_sweep · topk12_filter_rewrite</text>
<text x="315" y="186" font-size="12" font-family="Segoe UI, Arial" font-weight="700">93.52</text>
<rect x="390" y="171" width="86" height="20" rx="3" fill="#1f9d55"/>
<text x="433" y="186" font-size="11" text-anchor="middle" font-family="Segoe UI, Arial" fill="#111827">1.00</text>
<rect x="495" y="171" width="86" height="20" rx="3" fill="#1f9d55"/>
<text x="538" y="186" font-size="11" text-anchor="middle" font-family="Segoe UI, Arial" fill="#111827">1.00</text>
<rect x="600" y="171" width="86" height="20" rx="3" fill="#79b851"/>
<text x="643" y="186" font-size="11" text-anchor="middle" font-family="Segoe UI, Arial" fill="#111827">0.87</text>
<rect x="705" y="171" width="86" height="20" rx="3" fill="#1f9d55"/>
<text x="748" y="186" font-size="11" text-anchor="middle" font-family="Segoe UI, Arial" fill="#111827">1.00</text>
<rect x="810" y="171" width="86" height="20" rx="3" fill="#1f9d55"/>
<text x="853" y="186" font-size="11" text-anchor="middle" font-family="Segoe UI, Arial" fill="#111827">1.00</text>
<rect x="915" y="171" width="86" height="20" rx="3" fill="#dc2626"/>
<text x="958" y="186" font-size="11" text-anchor="middle" font-family="Segoe UI, Arial" fill="#111827">0.24</text>
<text x="24" y="218" font-size="12" font-family="Segoe UI, Arial">fetchk_sweep · fetch40_top8_filter_rewrite</text>
<text x="315" y="218" font-size="12" font-family="Segoe UI, Arial" font-weight="700">93.13</text>
<rect x="390" y="203" width="86" height="20" rx="3" fill="#1f9d55"/>
<text x="433" y="218" font-size="11" text-anchor="middle" font-family="Segoe UI, Arial" fill="#111827">1.00</text>
<rect x="495" y="203" width="86" height="20" rx="3" fill="#1f9d55"/>
<text x="538" y="218" font-size="11" text-anchor="middle" font-family="Segoe UI, Arial" fill="#111827">1.00</text>
<rect x="600" y="203" width="86" height="20" rx="3" fill="#79b851"/>
<text x="643" y="218" font-size="11" text-anchor="middle" font-family="Segoe UI, Arial" fill="#111827">0.80</text>
<rect x="705" y="203" width="86" height="20" rx="3" fill="#1f9d55"/>
<text x="748" y="218" font-size="11" text-anchor="middle" font-family="Segoe UI, Arial" fill="#111827">1.00</text>
<rect x="810" y="203" width="86" height="20" rx="3" fill="#1f9d55"/>
<text x="853" y="218" font-size="11" text-anchor="middle" font-family="Segoe UI, Arial" fill="#111827">1.00</text>
<rect x="915" y="203" width="86" height="20" rx="3" fill="#f59e0b"/>
<text x="958" y="218" font-size="11" text-anchor="middle" font-family="Segoe UI, Arial" fill="#111827">0.43</text>
<text x="24" y="250" font-size="12" font-family="Segoe UI, Arial">mmr_lambda_sweep · lambda03_top8_filter_rewrite</text>
<text x="315" y="250" font-size="12" font-family="Segoe UI, Arial" font-weight="700">93.08</text>
<rect x="390" y="235" width="86" height="20" rx="3" fill="#1f9d55"/>
<text x="433" y="250" font-size="11" text-anchor="middle" font-family="Segoe UI, Arial" fill="#111827">1.00</text>
<rect x="495" y="235" width="86" height="20" rx="3" fill="#1f9d55"/>
<text x="538" y="250" font-size="11" text-anchor="middle" font-family="Segoe UI, Arial" fill="#111827">1.00</text>
<rect x="600" y="235" width="86" height="20" rx="3" fill="#1f9d55"/>
<text x="643" y="250" font-size="11" text-anchor="middle" font-family="Segoe UI, Arial" fill="#111827">0.90</text>
<rect x="705" y="235" width="86" height="20" rx="3" fill="#1f9d55"/>
<text x="748" y="250" font-size="11" text-anchor="middle" font-family="Segoe UI, Arial" fill="#111827">1.00</text>
<rect x="810" y="235" width="86" height="20" rx="3" fill="#1f9d55"/>
<text x="853" y="250" font-size="11" text-anchor="middle" font-family="Segoe UI, Arial" fill="#111827">1.00</text>
<rect x="915" y="235" width="86" height="20" rx="3" fill="#dc2626"/>
<text x="958" y="250" font-size="11" text-anchor="middle" font-family="Segoe UI, Arial" fill="#111827">0.02</text>
<text x="24" y="282" font-size="12" font-family="Segoe UI, Arial">filter_rewrite_ablation · filter_on_rewrite_on_control</text>
<text x="315" y="282" font-size="12" font-family="Segoe UI, Arial" font-weight="700">91.21</text>
<rect x="390" y="267" width="86" height="20" rx="3" fill="#1f9d55"/>
<text x="433" y="282" font-size="11" text-anchor="middle" font-family="Segoe UI, Arial" fill="#111827">1.00</text>
<rect x="495" y="267" width="86" height="20" rx="3" fill="#1f9d55"/>
<text x="538" y="282" font-size="11" text-anchor="middle" font-family="Segoe UI, Arial" fill="#111827">1.00</text>
<rect x="600" y="267" width="86" height="20" rx="3" fill="#79b851"/>
<text x="643" y="282" font-size="11" text-anchor="middle" font-family="Segoe UI, Arial" fill="#111827">0.75</text>
<rect x="705" y="267" width="86" height="20" rx="3" fill="#1f9d55"/>
<text x="748" y="282" font-size="11" text-anchor="middle" font-family="Segoe UI, Arial" fill="#111827">0.95</text>
<rect x="810" y="267" width="86" height="20" rx="3" fill="#1f9d55"/>
<text x="853" y="282" font-size="11" text-anchor="middle" font-family="Segoe UI, Arial" fill="#111827">1.00</text>
<rect x="915" y="267" width="86" height="20" rx="3" fill="#f59e0b"/>
<text x="958" y="282" font-size="11" text-anchor="middle" font-family="Segoe UI, Arial" fill="#111827">0.44</text>
<text x="24" y="314" font-size="12" font-family="Segoe UI, Arial">topk_sweep · topk8_filter_rewrite_control</text>
<text x="315" y="314" font-size="12" font-family="Segoe UI, Arial" font-weight="700">91.03</text>
<rect x="390" y="299" width="86" height="20" rx="3" fill="#79b851"/>
<text x="433" y="314" font-size="11" text-anchor="middle" font-family="Segoe UI, Arial" fill="#111827">0.88</text>
<rect x="495" y="299" width="86" height="20" rx="3" fill="#79b851"/>
<text x="538" y="314" font-size="11" text-anchor="middle" font-family="Segoe UI, Arial" fill="#111827">0.88</text>
<rect x="600" y="299" width="86" height="20" rx="3" fill="#1f9d55"/>
<text x="643" y="314" font-size="11" text-anchor="middle" font-family="Segoe UI, Arial" fill="#111827">0.95</text>
<rect x="705" y="299" width="86" height="20" rx="3" fill="#1f9d55"/>
<text x="748" y="314" font-size="11" text-anchor="middle" font-family="Segoe UI, Arial" fill="#111827">1.00</text>
<rect x="810" y="299" width="86" height="20" rx="3" fill="#1f9d55"/>
<text x="853" y="314" font-size="11" text-anchor="middle" font-family="Segoe UI, Arial" fill="#111827">1.00</text>
<rect x="915" y="299" width="86" height="20" rx="3" fill="#f59e0b"/>
<text x="958" y="314" font-size="11" text-anchor="middle" font-family="Segoe UI, Arial" fill="#111827">0.53</text>
<text x="24" y="346" font-size="12" font-family="Segoe UI, Arial">filter_rewrite_ablation · filter_on_rewrite_off</text>
<text x="315" y="346" font-size="12" font-family="Segoe UI, Arial" font-weight="700">88.93</text>
<rect x="390" y="331" width="86" height="20" rx="3" fill="#79b851"/>
<text x="433" y="346" font-size="11" text-anchor="middle" font-family="Segoe UI, Arial" fill="#111827">0.88</text>
<rect x="495" y="331" width="86" height="20" rx="3" fill="#79b851"/>
<text x="538" y="346" font-size="11" text-anchor="middle" font-family="Segoe UI, Arial" fill="#111827">0.81</text>
<rect x="600" y="331" width="86" height="20" rx="3" fill="#1f9d55"/>
<text x="643" y="346" font-size="11" text-anchor="middle" font-family="Segoe UI, Arial" fill="#111827">0.93</text>
<rect x="705" y="331" width="86" height="20" rx="3" fill="#1f9d55"/>
<text x="748" y="346" font-size="11" text-anchor="middle" font-family="Segoe UI, Arial" fill="#111827">1.00</text>
<rect x="810" y="331" width="86" height="20" rx="3" fill="#1f9d55"/>
<text x="853" y="346" font-size="11" text-anchor="middle" font-family="Segoe UI, Arial" fill="#111827">1.00</text>
<rect x="915" y="331" width="86" height="20" rx="3" fill="#f59e0b"/>
<text x="958" y="346" font-size="11" text-anchor="middle" font-family="Segoe UI, Arial" fill="#111827">0.37</text>
<text x="24" y="378" font-size="12" font-family="Segoe UI, Arial">filter_rewrite_ablation · filter_off_rewrite_on</text>
<text x="315" y="378" font-size="12" font-family="Segoe UI, Arial" font-weight="700">82.85</text>
<rect x="390" y="363" width="86" height="20" rx="3" fill="#79b851"/>
<text x="433" y="378" font-size="11" text-anchor="middle" font-family="Segoe UI, Arial" fill="#111827">0.75</text>
<rect x="495" y="363" width="86" height="20" rx="3" fill="#f2c94c"/>
<text x="538" y="378" font-size="11" text-anchor="middle" font-family="Segoe UI, Arial" fill="#111827">0.60</text>
<rect x="600" y="363" width="86" height="20" rx="3" fill="#1f9d55"/>
<text x="643" y="378" font-size="11" text-anchor="middle" font-family="Segoe UI, Arial" fill="#111827">1.00</text>
<rect x="705" y="363" width="86" height="20" rx="3" fill="#1f9d55"/>
<text x="748" y="378" font-size="11" text-anchor="middle" font-family="Segoe UI, Arial" fill="#111827">1.00</text>
<rect x="810" y="363" width="86" height="20" rx="3" fill="#1f9d55"/>
<text x="853" y="378" font-size="11" text-anchor="middle" font-family="Segoe UI, Arial" fill="#111827">1.00</text>
<rect x="915" y="363" width="86" height="20" rx="3" fill="#f2c94c"/>
<text x="958" y="378" font-size="11" text-anchor="middle" font-family="Segoe UI, Arial" fill="#111827">0.59</text>
<text x="24" y="410" font-size="12" font-family="Segoe UI, Arial">mmr_lambda_sweep · lambda07_top8_filter_rewrite</text>
<text x="315" y="410" font-size="12" font-family="Segoe UI, Arial" font-weight="700">80.00</text>
<rect x="390" y="395" width="86" height="20" rx="3" fill="#1f9d55"/>
<text x="433" y="410" font-size="11" text-anchor="middle" font-family="Segoe UI, Arial" fill="#111827">1.00</text>
<rect x="495" y="395" width="86" height="20" rx="3" fill="#1f9d55"/>
<text x="538" y="410" font-size="11" text-anchor="middle" font-family="Segoe UI, Arial" fill="#111827">1.00</text>
<rect x="600" y="395" width="86" height="20" rx="3" fill="#f2c94c"/>
<text x="643" y="410" font-size="11" text-anchor="middle" font-family="Segoe UI, Arial" fill="#111827">0.73</text>
<rect x="705" y="395" width="86" height="20" rx="3" fill="#79b851"/>
<text x="748" y="410" font-size="11" text-anchor="middle" font-family="Segoe UI, Arial" fill="#111827">0.87</text>
<rect x="810" y="395" width="86" height="20" rx="3" fill="#dc2626"/>
<text x="853" y="410" font-size="11" text-anchor="middle" font-family="Segoe UI, Arial" fill="#111827">0.00</text>
<rect x="915" y="395" width="86" height="20" rx="3" fill="#f2c94c"/>
<text x="958" y="410" font-size="11" text-anchor="middle" font-family="Segoe UI, Arial" fill="#111827">0.60</text>
<text x="24" y="442" font-size="12" font-family="Segoe UI, Arial">filter_rewrite_ablation · filter_off_rewrite_off</text>
<text x="315" y="442" font-size="12" font-family="Segoe UI, Arial" font-weight="700">65.30</text>
<rect x="390" y="427" width="86" height="20" rx="3" fill="#f2c94c"/>
<text x="433" y="442" font-size="11" text-anchor="middle" font-family="Segoe UI, Arial" fill="#111827">0.62</text>
<rect x="495" y="427" width="86" height="20" rx="3" fill="#f59e0b"/>
<text x="538" y="442" font-size="11" text-anchor="middle" font-family="Segoe UI, Arial" fill="#111827">0.42</text>
<rect x="600" y="427" width="86" height="20" rx="3" fill="#f2c94c"/>
<text x="643" y="442" font-size="11" text-anchor="middle" font-family="Segoe UI, Arial" fill="#111827">0.70</text>
<rect x="705" y="427" width="86" height="20" rx="3" fill="#1f9d55"/>
<text x="748" y="442" font-size="11" text-anchor="middle" font-family="Segoe UI, Arial" fill="#111827">0.90</text>
<rect x="810" y="427" width="86" height="20" rx="3" fill="#1f9d55"/>
<text x="853" y="442" font-size="11" text-anchor="middle" font-family="Segoe UI, Arial" fill="#111827">1.00</text>
<rect x="915" y="427" width="86" height="20" rx="3" fill="#f2c94c"/>
<text x="958" y="442" font-size="11" text-anchor="middle" font-family="Segoe UI, Arial" fill="#111827">0.66</text>
</svg>