<svg xmlns="http://www.w3.org/2000/svg" width="1100" height="376" viewBox="0 0 1100 376">
<rect width="100%" height="100%" fill="#ffffff"/>
<text x="24" y="34" font-size="22" font-family="Segoe UI, Arial" font-weight="700">EDD score by experiment</text>
<text x="24" y="82" font-size="13" font-family="Segoe UI, Arial">topk_sweep · l32_v5_title_filter_topk_topk_sweep</text>
<rect x="310" y="66" width="638.6" height="20" rx="3" fill="#2f6fed"/>
<text x="956.6" y="82" font-size="13" font-family="Segoe UI, Arial">98.24</text>
<text x="24" y="116" font-size="13" font-family="Segoe UI, Arial">baseline_default · l33_v4_regression_title_filter_baseline_default</text>
<rect x="310" y="100" width="629.3" height="20" rx="3" fill="#6b8fd6"/>
<text x="947.3" y="116" font-size="13" font-family="Segoe UI, Arial">96.81</text>
<text x="24" y="150" font-size="13" font-family="Segoe UI, Arial">topk_sweep · l35_v4_title_filter_topk_regression_topk_sweep</text>
<rect x="310" y="134" width="626.9" height="20" rx="3" fill="#6b8fd6"/>
<text x="944.9" y="150" font-size="13" font-family="Segoe UI, Arial">96.44</text>
<text x="24" y="184" font-size="13" font-family="Segoe UI, Arial">topk_sweep · l32_v5_title_filter_topk_topk_sweep</text>
<rect x="310" y="168" width="625.6" height="20" rx="3" fill="#6b8fd6"/>
<text x="943.6" y="184" font-size="13" font-family="Segoe UI, Arial">96.24</text>
<text x="24" y="218" font-size="13" font-family="Segoe UI, Arial">topk_sweep · l32_v5_title_filter_topk_topk_sweep</text>
<rect x="310" y="202" width="625.3" height="20" rx="3" fill="#6b8fd6"/>
<text x="943.3" y="218" font-size="13" font-family="Segoe UI, Arial">96.20</text>
<text x="24" y="252" font-size="13" font-family="Segoe UI, Arial">baseline_default · l31_v5_title_filter_baseline_baseline_default</text>
<rect x="310" y="236" width="623.2" height="20" rx="3" fill="#6b8fd6"/>
<text x="941.2" y="252" font-size="13" font-family="Segoe UI, Arial">95.87</text>
<text x="24" y="286" font-size="13" font-family="Segoe UI, Arial">topk_sweep · l35_v4_title_filter_topk_regression_topk_sweep</text>
<rect x="310" y="270" width="615.2" height="20" rx="3" fill="#6b8fd6"/>
<text x="933.2" y="286" font-size="13" font-family="Segoe UI, Arial">94.64</text>
<text x="24" y="320" font-size="13" font-family="Segoe UI, Arial">topk_sweep · l35_v4_title_filter_topk_regression_topk_sweep</text>
<rect x="310" y="304" width="603.0" height="20" rx="3" fill="#6b8fd6"/>
<text x="921.0" y="320" font-size="13" font-family="Segoe UI, Arial">92.77</text>
<text x="24" y="354" font-size="13" font-family="Segoe UI, Arial">baseline_default · l30_v5_adversarial_first_baseline_baseline_default</text>
<rect x="310" y="338" width="600.6" height="20" rx="3" fill="#6b8fd6"/>
<text x="918.6" y="354" font-size="13" font-family="Segoe UI, Arial">92.40</text>
</svg>