<svg xmlns="http://www.w3.org/2000/svg" width="1120" height="750" viewBox="0 0 1120 750">
<rect width="100%" height="100%" fill="#f8f8f5" />
<text x="18" y="30" font-size="18" font-family="Arial" font-weight="700">L124 Raw Sparse Technical Seed Candidates</text>
<text x="18" y="72" font-size="12" font-family="Arial">DOC073 사단법인아시아물위원회사무국 / 우즈벡-키르기즈스탄 기후변화대응 스마트 관개시스템 구축사업</text>
<rect x="430" y="54" width="460" height="20" fill="#bf6b3d" rx="3" />
<text x="900" y="69" font-size="12" font-family="Arial">absent 16 / visible 15</text>
<text x="18" y="106" font-size="12" font-family="Arial">DOC051 기초과학연구원 / 2025년도 중이온가속기용 극저온시스템 운전 용역</text>
<rect x="430" y="88" width="431" height="20" fill="#bf6b3d" rx="3" />
<text x="871" y="103" font-size="12" font-family="Arial">absent 15 / visible 16</text>
<text x="18" y="140" font-size="12" font-family="Arial">DOC025 한국수자원공사 / 용인 첨단 시스템반도체 국가산단 용수공급사업 타당성조사 및 기본계획 수립 용</text>
<rect x="430" y="122" width="373" height="20" fill="#bf6b3d" rx="3" />
<text x="813" y="137" font-size="12" font-family="Arial">absent 13 / visible 18</text>
<text x="18" y="174" font-size="12" font-family="Arial">DOC090 한국수출입은행 / (긴급) 모잠비크 마푸토 지능형교통시스템(ITS) 구축사업 사업타당성조사(F</text>
<rect x="430" y="156" width="287" height="20" fill="#bf6b3d" rx="3" />
<text x="727" y="171" font-size="12" font-family="Arial">absent 10 / visible 21</text>
<text x="18" y="208" font-size="12" font-family="Arial">DOC023 한국사회보장정보원 / 라오스 보건의료정보화 협력을 위한 사전타당성 조사</text>
<rect x="430" y="190" width="287" height="20" fill="#bf6b3d" rx="3" />
<text x="727" y="205" font-size="12" font-family="Arial">absent 10 / visible 21</text>
<text x="18" y="242" font-size="12" font-family="Arial">DOC024 수협중앙회 / 강릉어선안전조업국 상황관제시스템 구축</text>
<rect x="430" y="224" width="258" height="20" fill="#bf6b3d" rx="3" />
<text x="698" y="239" font-size="12" font-family="Arial">absent 9 / visible 22</text>
<text x="18" y="276" font-size="12" font-family="Arial">DOC085 서울특별시교육청 / 서울특별시교육청 지능정보화전략계획(ISP) 수립(2차) 사업 용역</text>
<rect x="430" y="258" width="143" height="20" fill="#bf6b3d" rx="3" />
<text x="583" y="273" font-size="12" font-family="Arial">absent 5 / visible 26</text>
<text x="18" y="310" font-size="12" font-family="Arial">DOC049 국민연금공단 / 2024년 이러닝시스템 운영 용역</text>
<rect x="430" y="292" width="143" height="20" fill="#bf6b3d" rx="3" />
<text x="583" y="307" font-size="12" font-family="Arial">absent 5 / visible 26</text>
<text x="18" y="344" font-size="12" font-family="Arial">DOC083 한국해양조사협회 / 2024년 항해용 간행물 품질관리 업무보조 시스템 구축</text>
<rect x="430" y="326" width="143" height="20" fill="#bf6b3d" rx="3" />
<text x="583" y="341" font-size="12" font-family="Arial">absent 5 / visible 26</text>
<text x="18" y="378" font-size="12" font-family="Arial">DOC071 국가철도공단 / 철도인프라 디지털트윈 정보화전략계획(ISP) 수립 용역(변경공고)</text>
<rect x="430" y="360" width="143" height="20" fill="#bf6b3d" rx="3" />
<text x="583" y="375" font-size="12" font-family="Arial">absent 5 / visible 26</text>
<text x="18" y="412" font-size="12" font-family="Arial">DOC014 경희대학교 / [입찰공고] 산학협력단 정보시스템 운영 용역업체 선정</text>
<rect x="430" y="394" width="143" height="20" fill="#bf6b3d" rx="3" />
<text x="583" y="409" font-size="12" font-family="Arial">absent 5 / visible 26</text>
<text x="18" y="446" font-size="12" font-family="Arial">DOC098 (재)예술경영지원센터 / 통합 정보시스템 구축 사전 컨설팅</text>
<rect x="430" y="428" width="143" height="20" fill="#bf6b3d" rx="3" />
<text x="583" y="443" font-size="12" font-family="Arial">absent 5 / visible 26</text>
<text x="18" y="480" font-size="12" font-family="Arial">DOC061 경기도 평택시 / 2024년도 평택시 버스정보시스템(BIS) 구축사업</text>
<rect x="430" y="462" width="115" height="20" fill="#bf6b3d" rx="3" />
<text x="555" y="477" font-size="12" font-family="Arial">absent 4 / visible 27</text>
<text x="18" y="514" font-size="12" font-family="Arial">DOC086 재단법인 한국장애인문화예술원 / 2024년 장애인문화예술정보시스템 이음온라인 운영 용역</text>
<rect x="430" y="496" width="115" height="20" fill="#bf6b3d" rx="3" />
<text x="555" y="511" font-size="12" font-family="Arial">absent 4 / visible 27</text>
<text x="18" y="548" font-size="12" font-family="Arial">DOC093 조선대학교 / (재공고)2024 조선대학교 SW중심대학 사업관리시스템(WeHub) 구축</text>
<rect x="430" y="530" width="115" height="20" fill="#bf6b3d" rx="3" />
<text x="555" y="545" font-size="12" font-family="Arial">absent 4 / visible 27</text>
<text x="18" y="582" font-size="12" font-family="Arial">DOC082 한국원자력연구원 / 한국원자력연구원 선량평가시스템 고도화</text>
<rect x="430" y="564" width="115" height="20" fill="#bf6b3d" rx="3" />
<text x="555" y="579" font-size="12" font-family="Arial">absent 4 / visible 27</text>
<text x="18" y="616" font-size="12" font-family="Arial">DOC056 한국생산기술연구원 / 2세대 전자조달시스템  기반구축사업</text>
<rect x="430" y="598" width="86" height="20" fill="#bf6b3d" rx="3" />
<text x="526" y="613" font-size="12" font-family="Arial">absent 3 / visible 28</text>
<text x="18" y="650" font-size="12" font-family="Arial">DOC059 수협중앙회 / 수협중앙회 수산물사이버직매장 시스템 재구축 ISMP 수립 입찰 공고</text>
<rect x="430" y="632" width="86" height="20" fill="#bf6b3d" rx="3" />
<text x="526" y="647" font-size="12" font-family="Arial">absent 3 / visible 28</text>
<text x="18" y="684" font-size="12" font-family="Arial">DOC039 광주과학기술원 / 학사시스템 기능개선 사업</text>
<rect x="430" y="666" width="86" height="20" fill="#bf6b3d" rx="3" />
<text x="526" y="681" font-size="12" font-family="Arial">absent 3 / visible 28</text>
<text x="18" y="718" font-size="12" font-family="Arial">DOC062 케빈랩 주식회사 / 평택시 강소형 스마트시티 AI 기반의 영상감시 시스템 및 홍수감시 시스템 연</text>
<rect x="430" y="700" width="86" height="20" fill="#bf6b3d" rx="3" />
<text x="526" y="715" font-size="12" font-family="Arial">absent 3 / visible 28</text>
</svg>
