<svg xmlns="http://www.w3.org/2000/svg" width="980" height="360" viewBox="0 0 980 360">
  <rect width="980" height="360" fill="#ffffff"/>
  <text x="32" y="34" font-family="Arial, sans-serif" font-size="20" font-weight="700" fill="#1f2937">L37-L40 V6 Loop Points</text>
  <text x="32" y="58" font-family="Arial, sans-serif" font-size="12" fill="#4b5563">Blue = first-run evidence, gray = diagnostic-only targeted/probe runs. L38 score is not comparable because judged quality is missing.</text>
  <line x1="120" y1="300" x2="930" y2="300" stroke="#9ca3af" stroke-width="1"/>
  <line x1="120" y1="80" x2="120" y2="300" stroke="#9ca3af" stroke-width="1"/>
  <text x="74" y="304" font-family="Arial, sans-serif" font-size="11" fill="#6b7280">0</text>
  <text x="66" y="194" font-family="Arial, sans-serif" font-size="11" fill="#6b7280">50</text>
  <text x="58" y="84" font-family="Arial, sans-serif" font-size="11" fill="#6b7280">100</text>
  <line x1="114" y1="190" x2="930" y2="190" stroke="#e5e7eb" stroke-width="1"/>
  <line x1="114" y1="80" x2="930" y2="80" stroke="#e5e7eb" stroke-width="1"/>

  <rect x="170" y="110" width="110" height="190" fill="#2563eb"/>
  <text x="177" y="104" font-family="Arial, sans-serif" font-size="13" font-weight="700" fill="#1f2937">86.25</text>
  <text x="178" y="324" font-family="Arial, sans-serif" font-size="12" fill="#1f2937">L37</text>
  <text x="162" y="342" font-family="Arial, sans-serif" font-size="11" fill="#4b5563">first-run</text>

  <rect x="350" y="177" width="110" height="123" fill="#9ca3af"/>
  <text x="357" y="171" font-family="Arial, sans-serif" font-size="13" font-weight="700" fill="#1f2937">56.04*</text>
  <text x="358" y="324" font-family="Arial, sans-serif" font-size="12" fill="#1f2937">L38</text>
  <text x="331" y="342" font-family="Arial, sans-serif" font-size="11" fill="#4b5563">diagnostic</text>

  <rect x="530" y="122" width="110" height="178" fill="#9ca3af"/>
  <text x="537" y="116" font-family="Arial, sans-serif" font-size="13" font-weight="700" fill="#1f2937">80.95</text>
  <text x="538" y="324" font-family="Arial, sans-serif" font-size="12" fill="#1f2937">L39</text>
  <text x="511" y="342" font-family="Arial, sans-serif" font-size="11" fill="#4b5563">diagnostic</text>

  <rect x="710" y="113" width="110" height="187" fill="#9ca3af"/>
  <text x="717" y="107" font-family="Arial, sans-serif" font-size="13" font-weight="700" fill="#1f2937">85.00</text>
  <text x="718" y="324" font-family="Arial, sans-serif" font-size="12" fill="#1f2937">L40</text>
  <text x="691" y="342" font-family="Arial, sans-serif" font-size="11" fill="#4b5563">diagnostic</text>

  <text x="32" y="352" font-family="Arial, sans-serif" font-size="11" fill="#6b7280">* L38 is an abstention-only diagnostic row; do not compare it as a complete EDD run.</text>
</svg>
