<svg xmlns="http://www.w3.org/2000/svg" width="900" height="360" viewBox="0 0 900 360" role="img" aria-label="L108 to L112 diagnostic trends">
  <rect width="900" height="360" fill="#ffffff"/>
  <text x="30" y="34" font-family="Arial, sans-serif" font-size="20" font-weight="700" fill="#1f2937">L108-L112 Diagnostic Trend</text>
  <text x="30" y="58" font-family="Arial, sans-serif" font-size="12" fill="#4b5563">No-judge diagnostic only: false abstention lower is better; latency lower is better.</text>
  <line x1="70" y1="300" x2="830" y2="300" stroke="#d1d5db"/>
  <line x1="70" y1="90" x2="70" y2="300" stroke="#d1d5db"/>
  <text x="30" y="95" font-family="Arial, sans-serif" font-size="11" fill="#6b7280">0.6</text>
  <text x="30" y="200" font-family="Arial, sans-serif" font-size="11" fill="#6b7280">0.3</text>
  <text x="38" y="304" font-family="Arial, sans-serif" font-size="11" fill="#6b7280">0</text>
  <polyline fill="none" stroke="#dc2626" stroke-width="3" points="100,90 250,230 400,300 550,230 700,300"/>
  <circle cx="100" cy="90" r="5" fill="#dc2626"/>
  <circle cx="250" cy="230" r="5" fill="#dc2626"/>
  <circle cx="400" cy="300" r="5" fill="#dc2626"/>
  <circle cx="550" cy="230" r="5" fill="#dc2626"/>
  <circle cx="700" cy="300" r="5" fill="#dc2626"/>
  <text x="722" y="304" font-family="Arial, sans-serif" font-size="12" fill="#dc2626">false abstention</text>
  <polyline fill="none" stroke="#2563eb" stroke-width="3" points="100,238 250,191 400,198 550,196 700,250"/>
  <circle cx="100" cy="238" r="5" fill="#2563eb"/>
  <circle cx="250" cy="191" r="5" fill="#2563eb"/>
  <circle cx="400" cy="198" r="5" fill="#2563eb"/>
  <circle cx="550" cy="196" r="5" fill="#2563eb"/>
  <circle cx="700" cy="250" r="5" fill="#2563eb"/>
  <text x="722" y="252" font-family="Arial, sans-serif" font-size="12" fill="#2563eb">latency scaled</text>
  <g font-family="Arial, sans-serif" font-size="12" fill="#374151">
    <text x="88" y="325">L108</text>
    <text x="238" y="325">L109</text>
    <text x="388" y="325">L110</text>
    <text x="538" y="325">L111</text>
    <text x="688" y="325">L112</text>
  </g>
  <g font-family="Arial, sans-serif" font-size="11" fill="#4b5563">
    <text x="84" y="78">0.6</text>
    <text x="234" y="218">0.2</text>
    <text x="387" y="288">0.0</text>
    <text x="534" y="218">0.2</text>
    <text x="687" y="288">0.0</text>
    <text x="82" y="255">7.48s</text>
    <text x="229" y="184">9.39s</text>
    <text x="379" y="191">9.09s</text>
    <text x="529" y="189">9.14s</text>
    <text x="679" y="243">7.18s</text>
  </g>
</svg>
