<svg xmlns="http://www.w3.org/2000/svg" width="920" height="620" viewBox="0 0 920 620">
<rect width="100%" height="100%" fill="#ffffff"/>
<text x="24" y="34" font-size="22" font-family="Segoe UI, Arial" font-weight="700">Retrieval coverage vs groundedness</text>
<line x1="90" y1="540" x2="880" y2="540" stroke="#334155"/>
<line x1="90" y1="60" x2="90" y2="540" stroke="#334155"/>
<text x="485.0" y="596" font-size="14" text-anchor="middle" font-family="Segoe UI, Arial">retrieval coverage</text>
<text x="24" y="300.0" font-size="14" transform="rotate(-90 24 300.0)" text-anchor="middle" font-family="Segoe UI, Arial">groundedness</text>
<line x1="85" y1="540.0" x2="90" y2="540.0" stroke="#334155"/>
<text x="78" y="544.0" font-size="11" text-anchor="end" font-family="Segoe UI, Arial">0</text>
<line x1="85" y1="444.0" x2="90" y2="444.0" stroke="#334155"/>
<text x="78" y="448.0" font-size="11" text-anchor="end" font-family="Segoe UI, Arial">1</text>
<line x1="85" y1="348.0" x2="90" y2="348.0" stroke="#334155"/>
<text x="78" y="352.0" font-size="11" text-anchor="end" font-family="Segoe UI, Arial">2</text>
<line x1="85" y1="252.0" x2="90" y2="252.0" stroke="#334155"/>
<text x="78" y="256.0" font-size="11" text-anchor="end" font-family="Segoe UI, Arial">3</text>
<line x1="85" y1="155.99999999999997" x2="90" y2="155.99999999999997" stroke="#334155"/>
<text x="78" y="159.99999999999997" font-size="11" text-anchor="end" font-family="Segoe UI, Arial">4</text>
<line x1="85" y1="60.0" x2="90" y2="60.0" stroke="#334155"/>
<text x="78" y="64.0" font-size="11" text-anchor="end" font-family="Segoe UI, Arial">5</text>
<line x1="90.0" y1="540" x2="90.0" y2="545" stroke="#334155"/>
<text x="90.0" y="562" font-size="11" text-anchor="middle" font-family="Segoe UI, Arial">0.00</text>
<line x1="287.5" y1="540" x2="287.5" y2="545" stroke="#334155"/>
<text x="287.5" y="562" font-size="11" text-anchor="middle" font-family="Segoe UI, Arial">0.25</text>
<line x1="485.0" y1="540" x2="485.0" y2="545" stroke="#334155"/>
<text x="485.0" y="562" font-size="11" text-anchor="middle" font-family="Segoe UI, Arial">0.50</text>
<line x1="682.5" y1="540" x2="682.5" y2="545" stroke="#334155"/>
<text x="682.5" y="562" font-size="11" text-anchor="middle" font-family="Segoe UI, Arial">0.75</text>
<line x1="880.0" y1="540" x2="880.0" y2="545" stroke="#334155"/>
<text x="880.0" y="562" font-size="11" text-anchor="middle" font-family="Segoe UI, Arial">1.00</text>
<circle cx="880.0" cy="60.0" r="9.3" fill="#64748b" fill-opacity="0.72" stroke="#111827" stroke-width="0.5"/>
<text x="893.3" y="64.0" font-size="10" font-family="Segoe UI, Arial">l37_v6_metamorphic_first_b</text>
</svg>